ply
format ascii 1.0
comment Created by Blender 2.77 (sub 0) - www.blender.org, source file: 'coffin-kart.blend'
element vertex 12
property float x
property float y
property float z
property uchar red
property uchar green
property uchar blue
element face 20
property list uchar uint vertex_indices
end_header
-10.326757 9.829084 31.463377 255 213 100
-6.771477 11.784492 -16.159517 255 213 100
6.288240 11.195047 -16.159515 255 213 100
9.652901 8.927311 31.463383 255 213 100
-9.919947 18.842464 31.355688 255 213 100
-6.505558 17.676088 -16.229908 255 213 100
6.554156 17.086645 -16.229900 255 213 100
10.059717 17.940691 31.355694 255 213 100
-3.518166 20.266914 -1.909098 172 114 49
3.812303 19.936056 -1.909095 172 114 49
-5.364229 22.482380 26.115057 172 114 49
5.850434 21.976213 26.115057 172 114 49
3 0 1 2
3 2 3 0
3 0 4 5
3 5 1 0
3 1 5 6
3 6 2 1
3 2 6 7
3 7 3 2
3 4 0 3
3 3 7 4
3 6 5 8
3 8 9 6
3 10 11 9
3 9 8 10
3 5 4 10
3 10 8 5
3 7 6 9
3 9 11 7
3 4 7 11
3 11 10 4
