ply
format ascii 1.0
comment Created by Blender 2.77 (sub 0) - www.blender.org, source file: 'coffin-kart.blend'
element vertex 24
property float x
property float y
property float z
property uchar red
property uchar green
property uchar blue
element face 20
property list uchar uint vertex_indices
end_header
-1.391841 -0.942160 4.471488 255 213 100
-1.351160 -0.942160 -5.053091 255 213 100
1.260788 -0.942160 -5.053091 255 213 100
1.220098 -0.942160 4.471489 255 213 100
-1.391841 -0.942160 4.471488 153 109 61
-1.310479 0.469436 4.449951 153 109 61
-1.351160 0.118280 -5.067169 153 109 61
-1.351160 -0.942160 -5.053091 153 109 61
1.260780 0.118273 -5.067167 153 109 61
1.260788 -0.942160 -5.053091 153 109 61
1.301462 0.469440 4.449952 153 109 61
1.220098 -0.942160 4.471489 153 109 61
1.260780 0.118273 -5.067167 215 184 99
-1.351160 0.118280 -5.067169 215 184 99
-0.700493 1.197420 -2.203007 215 184 99
0.773220 1.197420 -2.203006 215 184 99
-0.700500 1.197420 3.401824 172 114 49
0.773226 1.197420 3.401820 172 114 49
0.773220 1.197420 -2.203006 172 114 49
-0.700493 1.197420 -2.203007 172 114 49
-1.310479 0.469436 4.449951 215 184 99
-0.700500 1.197420 3.401824 215 184 99
1.301462 0.469440 4.449952 215 184 99
0.773226 1.197420 3.401820 215 184 99
3 0 1 2
3 2 3 0
3 4 5 6
3 6 7 4
3 7 6 8
3 8 9 7
3 9 8 10
3 10 11 9
3 5 4 11
3 11 10 5
3 12 13 14
3 14 15 12
3 16 17 18
3 18 19 16
3 13 20 21
3 21 14 13
3 22 12 15
3 15 23 22
3 20 22 23
3 23 21 20
