ply
format ascii 1.0
comment Created by Blender 2.77 (sub 0) - www.blender.org, source file: 'levs-kart-lowpoly.blend'
element vertex 605
property float x
property float y
property float z
property uchar red
property uchar green
property uchar blue
element face 614
property list uchar uint vertex_indices
end_header
-1.444393 0.041997 1.409503 70 70 70
-1.189509 0.059137 1.436632 37 37 37
-1.316335 0.381108 1.576683 109 109 109
-1.444477 0.139126 1.510268 59 59 59
1.481398 0.677027 -1.256497 110 110 110
1.520642 0.448432 -1.137607 110 110 110
1.347511 0.411331 -1.049891 110 110 110
1.188177 0.685236 -1.289065 110 110 110
1.188185 0.177784 -1.112354 82 82 82
1.146818 0.613481 -1.266023 48 48 48
1.188177 0.685236 -1.289065 50 50 50
1.347511 0.411331 -1.049891 62 62 62
-1.505757 0.159094 1.069196 33 33 33
-1.444474 0.059126 1.011175 62 62 62
-1.321289 -0.025293 1.168205 66 66 66
-1.505755 0.203015 1.418743 65 65 65
-1.504323 0.136333 1.319124 42 42 42
1.169903 0.098235 -1.696041 110 110 110
1.188185 -0.003432 -1.343081 109 109 109
1.473198 -0.013858 -1.405793 110 110 110
1.473287 0.103146 -1.705871 110 110 110
1.533920 0.204746 -1.570799 98 98 98
1.543437 0.133140 -1.357515 93 93 93
1.531279 0.146953 -1.434281 95 95 95
-1.189516 0.672351 1.221687 110 110 110
-1.189513 0.563126 1.475123 110 110 110
-1.129083 0.437147 1.426433 110 110 110
-1.129087 0.547822 1.300374 110 110 110
-1.129087 0.533418 1.114591 110 110 110
-1.151845 0.524918 1.007858 110 110 110
-1.189515 0.629896 1.058466 110 110 110
-1.126804 0.554928 -1.320505 110 110 110
-1.127604 0.463660 -1.271344 102 102 102
-1.138952 0.553341 -1.434298 110 110 110
-1.138951 0.487757 -1.583815 102 102 102
-1.143104 0.366443 -1.642092 82 82 82
-1.126802 0.480436 -1.629012 100 100 100
1.442340 0.669519 1.197214 110 110 110
1.442342 0.614096 1.412052 110 110 110
1.183558 0.683523 1.271545 110 110 110
-1.533876 0.212472 -1.284782 49 49 49
-1.533875 0.157899 -1.368312 48 48 48
-1.546033 0.209536 -1.249731 51 51 51
-1.546027 0.372050 -1.201029 89 89 89
-1.533879 0.461265 -1.264166 108 108 108
-1.534079 0.316551 -1.233265 69 69 69
1.473287 0.103146 -1.705871 66 66 66
1.473198 -0.013858 -1.405793 99 99 99
1.473197 0.080399 -1.188208 97 97 97
1.543434 0.209607 -1.249713 102 102 102
1.501223 0.309233 -1.788451 70 70 70
-1.190697 0.638397 -1.661675 110 110 110
-1.335977 0.714590 -1.569378 110 110 110
-1.190698 0.698143 -1.317323 110 110 110
-1.149686 0.222904 -1.717662 79 79 79
-1.170117 0.251196 -1.797293 87 87 87
1.316720 0.074605 0.976221 57 57 57
1.450421 0.290540 0.881297 64 64 64
1.168369 0.402433 0.882716 96 96 96
-1.494548 0.144082 1.142841 110 110 110
-1.505757 0.159094 1.069196 110 110 110
-1.504323 0.136333 1.319124 110 110 110
-1.339890 -0.018066 -1.516549 54 54 54
-1.492888 0.178079 -1.756460 50 50 50
-1.505760 0.367781 1.450243 110 110 110
-1.505762 0.557821 1.241720 110 110 110
-1.501673 0.481533 1.392766 110 110 110
-1.529324 0.487173 -1.739282 107 107 107
-1.475878 -0.012370 -1.376040 62 62 62
-1.475794 0.124517 -1.147179 52 52 52
-1.475794 0.229970 -1.089482 65 65 65
-1.530862 0.187352 -1.552009 53 53 53
-1.524891 0.337860 -1.643941 80 80 80
-1.444397 0.539889 0.955215 79 79 79
-1.444477 0.302676 0.881387 35 35 35
-1.444474 0.059126 1.011175 54 54 54
-1.505757 0.159094 1.069196 32 32 32
-1.505760 0.419462 1.014797 44 44 44
-1.461031 0.651501 1.356405 110 110 110
-1.483428 0.595985 1.343655 109 109 109
-1.505762 0.557821 1.241720 100 100 100
-1.505760 0.367781 1.450243 107 107 107
-1.475887 0.712596 -1.492556 110 110 110
-1.475799 0.654887 -1.233190 110 110 110
-1.190787 0.619869 -1.188151 110 110 110
1.188093 0.378134 -1.800376 103 103 103
1.482505 0.665599 -1.631337 57 57 57
1.188091 0.638455 -1.661659 62 62 62
1.543431 0.462735 -1.231406 110 110 110
1.527489 0.543741 -1.367584 110 110 110
1.524487 0.504903 -1.294868 110 110 110
-1.546027 0.372050 -1.201029 99 99 99
-1.536279 0.549807 -1.428290 110 110 110
-1.533879 0.461265 -1.264166 110 110 110
1.442343 0.581294 0.993632 110 110 110
1.473193 0.174916 -1.113941 83 83 83
1.473197 0.080399 -1.188208 85 85 85
1.188185 -0.003432 -1.343081 87 87 87
-1.138948 0.212477 -1.583815 71 71 71
-1.148087 0.141273 -1.394922 76 76 76
-1.529324 0.487173 -1.739282 108 108 108
-1.523018 0.593370 -1.241275 110 110 110
1.503712 0.105989 1.168653 79 79 79
1.503711 0.119050 1.317225 98 98 98
1.492503 0.133321 1.273424 94 94 94
1.492500 0.144147 1.142853 82 82 82
1.492499 0.295710 1.024904 107 107 107
1.503710 0.289974 0.997573 106 106 106
1.127031 0.547878 1.300388 100 100 100
1.127028 0.539689 1.132714 108 108 108
1.127032 0.292237 0.997193 74 74 74
-1.444474 0.059126 1.011175 100 100 100
-1.444477 0.302676 0.881387 88 88 88
-1.189511 0.355007 0.881389 99 99 99
-1.189508 0.188835 0.910219 55 55 55
-1.189592 0.076478 0.993616 90 90 90
1.124197 0.580835 -1.393156 91 91 91
1.146817 0.635047 -1.562678 105 105 105
1.188177 0.703778 -1.525486 106 106 106
1.188177 0.685236 -1.289065 96 96 96
1.146818 0.613481 -1.266023 89 89 89
1.158531 0.568199 -1.506144 110 110 110
1.137025 0.407942 -1.625895 110 110 110
1.124197 0.580835 -1.393156 110 110 110
1.492504 0.452848 1.064711 110 110 110
1.492498 0.529983 1.207265 110 110 110
1.492476 0.477345 1.360565 110 110 110
1.503707 0.470880 1.404449 109 109 109
1.503702 0.557887 1.260881 110 110 110
-1.189513 0.514868 0.935118 110 110 110
-1.189511 0.355007 0.881389 81 81 81
1.270148 -0.032576 1.198969 67 67 67
1.442736 0.113388 1.499364 68 68 68
1.503710 0.205110 1.415251 84 84 84
1.503711 0.119050 1.317225 86 86 86
1.503712 0.105989 1.168653 64 64 64
1.503710 0.289974 0.997573 72 72 72
-1.129079 0.220551 1.021369 41 41 41
-1.189508 0.188835 0.910219 39 39 39
1.147247 0.214743 -1.269486 115 115 115
1.145455 0.419672 -1.235616 115 115 115
1.124190 0.490747 -1.249714 115 115 115
1.127036 0.124336 1.333226 110 110 110
1.150496 0.202680 1.396490 110 110 110
1.143604 0.365949 1.429162 110 110 110
1.482505 0.665599 -1.631337 107 107 107
1.481398 0.677027 -1.256497 92 92 92
1.188091 0.638455 -1.661659 109 109 109
1.188093 0.378134 -1.800376 108 108 108
1.188177 0.703778 -1.525486 53 53 53
1.146817 0.635047 -1.562678 56 56 56
1.124197 0.580835 -1.393156 51 51 51
1.137025 0.407942 -1.625895 95 95 95
1.136810 0.214072 -1.578950 106 106 106
-1.190693 0.322157 -1.068204 108 108 108
-1.475795 0.348440 -1.069154 110 110 110
1.531278 0.171447 -1.337557 81 81 81
1.531279 0.146953 -1.434281 89 89 89
1.543437 0.133140 -1.357515 87 87 87
1.520642 0.448432 -1.137607 58 58 58
1.481398 0.677027 -1.256497 50 50 50
1.482505 0.665599 -1.631337 56 56 56
1.533920 0.204746 -1.570799 95 95 95
1.531483 0.305653 -1.653068 96 96 96
1.499551 0.531301 -1.549141 62 62 62
1.543434 0.209607 -1.249713 77 77 77
1.531277 0.268544 -1.248174 77 77 77
1.527489 0.543741 -1.367584 54 54 54
1.543431 0.462735 -1.231406 56 56 56
1.524487 0.504903 -1.294868 53 53 53
1.531476 0.350163 -1.230467 69 69 69
-1.140328 0.452785 1.383132 110 110 110
-1.149187 0.536995 1.234741 109 109 109
-1.129079 0.159100 1.378603 63 63 63
-1.140336 0.204942 1.383160 67 67 67
-1.140293 0.362078 1.422909 106 106 106
1.285222 0.400460 1.579646 110 110 110
-1.530862 0.187352 -1.552009 70 70 70
-1.546033 0.209536 -1.249731 67 67 67
-1.533875 0.157899 -1.368312 70 70 70
-1.129079 0.159100 1.378603 48 48 48
-1.140285 0.263349 1.033077 46 46 46
-1.140292 0.133255 1.174376 32 32 32
-1.140288 0.133264 1.273435 36 36 36
-1.140336 0.204942 1.383160 55 55 55
-1.129079 0.159100 1.378603 47 47 47
-1.129078 0.099873 1.241721 38 38 38
1.480971 0.605023 1.131206 110 110 110
1.171978 0.155876 1.514479 84 84 84
1.270148 -0.032576 1.198969 87 87 87
1.127036 0.124336 1.333226 68 68 68
1.127031 0.547878 1.300388 110 110 110
1.138238 0.524490 1.174382 105 105 105
1.121215 0.428872 1.037556 109 109 109
1.143604 0.365949 1.429162 84 84 84
1.138279 0.497824 1.334280 94 94 94
-1.148087 0.141273 -1.394922 67 67 67
-1.126791 0.291537 -1.211661 68 68 68
-1.190692 0.151285 -1.125634 72 72 72
-1.190689 -0.011639 -1.371532 88 88 88
-1.339890 -0.018066 -1.516549 86 86 86
-1.140286 0.477296 1.087234 110 110 110
-1.140286 0.328836 1.022139 80 80 80
1.473193 0.174916 -1.113941 108 108 108
1.347511 0.411331 -1.049891 81 81 81
1.520642 0.448432 -1.137607 80 80 80
-1.190693 0.322157 -1.068204 86 86 86
-1.475795 0.348440 -1.069154 97 97 97
-1.190692 0.151285 -1.125634 51 51 51
-1.505755 0.203015 1.418743 76 76 76
-1.494563 0.263317 1.414707 109 109 109
-1.504323 0.136333 1.319124 55 55 55
1.127036 0.124336 1.333226 60 60 60
1.127033 0.160713 1.067522 54 54 54
-1.126791 0.291537 -1.211661 58 58 58
-1.505760 0.419462 1.014797 110 110 110
-1.505757 0.159094 1.069196 57 57 57
-1.494548 0.144082 1.142841 55 55 55
-1.494531 0.232829 1.046446 64 64 64
-1.494551 0.529917 1.207252 110 110 110
-1.494545 0.497758 1.113547 110 110 110
-1.494551 0.328858 1.022138 104 104 104
-1.321289 -0.025293 1.168205 56 56 56
-1.189592 0.076478 0.993616 51 51 51
1.138242 0.127831 1.207269 52 52 52
1.150496 0.202680 1.396490 82 82 82
1.127036 0.124336 1.333226 58 58 58
1.138234 0.263371 1.033094 68 68 68
1.138267 0.180456 1.087286 55 55 55
1.492464 0.180470 1.360562 104 104 104
1.503710 0.205110 1.415251 90 90 90
1.492491 0.362108 1.422932 99 99 99
1.169903 0.098235 -1.696041 77 77 77
1.136810 0.214072 -1.578950 76 76 76
1.135910 0.159788 -1.380498 93 93 93
1.147247 0.214743 -1.269486 82 82 82
1.124190 0.490747 -1.249714 52 52 52
1.145455 0.419672 -1.235616 57 57 57
1.136346 0.528904 -1.337559 52 52 52
1.158531 0.568199 -1.506144 55 55 55
1.127028 0.539689 1.132714 110 110 110
1.121215 0.428872 1.037556 251 251 251
1.127032 0.292237 0.997193 92 92 92
-1.444474 0.059126 1.011175 59 59 59
-1.189592 0.076478 0.993616 58 58 58
1.188185 0.177784 -1.112354 109 109 109
1.171978 0.155876 1.514479 64 64 64
-1.190689 -0.011639 -1.371532 47 47 47
-1.526134 0.506976 -1.573292 108 108 108
-1.126791 0.291537 -1.211661 65 65 65
-1.138949 0.268483 -1.248190 61 61 61
-1.415694 0.792355 -0.051183 0 160 255
-1.096657 0.418199 0.745638 48 157 223
-1.110511 0.635595 -1.069461 11 124 189
-1.505679 0.646317 -1.058066 3 151 237
-0.459231 0.260697 2.424069 0 160 255
-1.148249 0.175518 2.136148 1 158 251
-1.160226 0.098426 2.076864 2 154 244
0.600832 0.096673 2.335070 0 160 255
0.333917 0.259896 2.441875 0 160 255
1.146506 0.160666 2.118344 4 146 229
1.158473 0.098947 2.076537 7 140 218
1.145325 0.175077 2.135745 4 149 234
0.437878 0.268657 2.448786 0 160 255
-1.445252 0.392403 0.778270 1 156 247
-1.457470 0.155767 0.698406 13 121 185
-1.532257 0.130482 -0.988218 0 160 255
-1.529793 0.608388 -1.066517 10 129 199
-1.508000 0.623360 -1.075872 3 148 230
0.992308 0.560815 1.598446 5 144 227
0.328653 0.625799 1.880616 1 157 250
1.356238 0.545241 1.735485 7 139 216
1.305805 0.575517 1.598855 7 137 215
1.147919 0.359963 -1.086474 6 144 225
1.093050 0.617752 -1.056386 16 107 162
1.100123 0.639066 -1.041203 15 108 161
1.116838 0.657233 -1.042944 15 113 171
1.504638 0.650224 -1.052323 1 154 243
1.507798 0.612563 -1.077893 4 149 234
1.509873 0.156258 -1.005115 30 130 188
1.524265 0.130802 -0.985089 30 134 196
1.517887 0.089830 -0.980006 25 151 226
1.132675 0.116021 -0.991119 3 150 236
1.337326 0.132378 -1.823400 13 164 254
0.298636 0.233611 -1.986001 14 117 177
-1.335771 0.267709 -1.934195 16 94 141
-1.237617 0.612005 -1.886412 159 207 238
-1.272880 0.645774 -1.826167 115 196 243
0.527711 0.661812 -1.823424 0 160 255
-1.338669 0.131345 -1.823565 14 111 164
1.344448 0.669500 -1.824860 108 193 244
-1.363523 0.162839 -1.826375 15 106 157
1.288117 0.670743 -2.112844 108 190 245
-1.346915 0.669475 -1.824902 66 181 248
-1.290575 0.670719 -2.112885 97 189 244
1.134156 0.105104 -0.974001 2 154 245
1.120337 0.104784 -0.964313 2 154 245
1.098081 0.119411 -0.963005 2 154 244
1.147919 0.359963 -1.086474 4 149 235
1.132675 0.116021 -0.991119 2 154 244
1.517887 0.089830 -0.980006 20 166 253
-0.420857 1.196371 0.761971 77 166 217
-0.356736 1.352787 0.790367 66 162 219
-0.344267 1.358627 0.775112 67 161 218
0.403092 1.218577 0.730014 105 176 217
-1.338669 0.131345 -1.823565 0 160 255
-1.363523 0.162839 -1.826375 0 160 255
-1.307959 0.297350 -2.110780 0 160 255
-1.280309 0.270416 -2.112873 0 160 255
1.337326 0.132378 -1.823400 0 160 255
1.277859 0.270441 -2.112832 0 160 255
-1.100658 0.123121 -0.982506 0 160 255
1.101208 0.591803 -0.275414 17 100 149
1.086168 0.399383 0.745998 12 123 188
1.102857 0.424014 0.753421 11 125 189
1.129913 0.438775 0.751118 12 124 191
-1.428030 0.333673 1.669142 0 160 255
-1.415370 0.097925 1.697362 0 160 255
-1.385341 0.506830 1.622983 0 160 255
-1.280126 0.347428 1.654873 4 149 234
-1.249672 0.097404 1.637046 10 133 203
-1.415370 0.097925 1.697362 14 110 164
-1.428030 0.333673 1.669142 6 140 217
-1.385341 0.506830 1.622983 4 148 234
-1.345330 0.556114 1.610889 4 148 234
-1.308382 0.575493 1.598816 4 148 234
-1.178270 0.558073 1.586617 3 149 235
-1.225117 0.528590 1.596761 4 149 235
1.104845 0.397708 0.774191 0 160 255
1.104682 0.131121 0.715030 0 160 255
1.128155 0.102137 0.702942 0 160 255
1.410268 0.106615 0.698810 0 160 255
1.423751 0.100194 0.692391 0 160 255
1.408402 0.137273 0.732679 0 160 255
1.429598 0.412606 0.776986 0 160 255
1.129951 0.416862 0.778695 0 160 255
1.410308 0.326775 0.780192 0 160 255
1.388091 0.376207 0.790169 0 160 255
-1.346915 0.669475 -1.824902 0 160 255
-1.290575 0.670719 -2.112885 0 160 255
-1.368290 0.439018 1.879486 0 160 255
-1.340939 0.341757 1.976150 0 160 255
-0.749684 0.332487 2.360247 0 160 255
-1.267894 0.614145 -2.110556 100 193 244
-1.254225 0.635772 -2.110730 111 193 244
-1.267748 0.325039 -2.110600 12 102 155
-1.406826 0.116567 0.720785 0 160 255
-1.412075 0.136223 0.732164 0 160 255
-1.438123 0.144373 0.721620 0 160 255
-1.441034 0.119725 0.699584 0 160 255
-1.421311 0.104630 0.691787 0 160 255
-1.408368 0.104775 0.702480 0 160 255
-1.126634 0.111166 0.696316 0 160 255
-1.120576 0.103578 0.687569 0 160 255
-1.127876 0.129570 0.728444 0 160 255
1.086168 0.399383 0.745998 0 160 255
1.129913 0.438775 0.751118 0 160 255
1.102857 0.424014 0.753421 0 160 255
-1.131147 0.112762 -0.963582 0 160 255
-1.494334 0.104639 -0.974331 0 160 255
-1.511554 0.104480 -0.957168 0 160 255
1.117616 0.104449 0.686103 13 117 178
1.128155 0.102137 0.702942 13 115 176
1.104682 0.131121 0.715030 14 115 173
1.321255 0.194341 -1.826278 0 160 255
0.298636 0.233611 -1.986001 0 160 254
1.361065 0.162864 -1.826331 0 160 255
1.361796 0.635052 -1.825831 0 160 255
1.344448 0.669500 -1.824860 0 160 255
1.305704 0.633519 -1.825812 0 160 255
-1.457470 0.155767 0.698406 0 160 255
-1.436948 0.389350 0.776982 0 160 255
1.361796 0.635052 -1.825831 107 193 245
1.361065 0.162864 -1.826331 15 165 253
1.305507 0.297374 -2.110739 12 164 254
1.533511 0.635179 -1.042038 7 138 213
-1.127029 0.399431 0.785693 45 174 249
-1.127876 0.129570 0.728444 70 182 248
-1.120576 0.103578 0.687569 66 180 248
-1.088802 0.154050 0.703314 70 181 248
-1.101719 0.405499 0.765153 47 174 249
-0.336787 1.370043 0.798016 68 162 219
0.345506 1.364247 0.789980 139 189 217
1.305507 0.297374 -2.110739 0 160 255
0.345506 1.364247 0.789980 0 160 255
0.319313 1.041687 1.330536 0 160 255
0.269051 0.769409 1.759186 0 160 255
1.390233 0.448105 1.828300 6 139 216
1.364972 0.344370 1.939130 7 135 209
1.378993 0.097414 1.831066 19 98 144
1.396688 0.097297 1.647296 21 95 139
1.368527 0.497352 1.812520 6 139 216
-0.268031 0.803404 1.695900 0 160 255
-0.288483 0.736359 1.809906 0 160 255
-0.265640 0.891541 1.566101 0 160 255
-1.234574 0.422390 1.986946 0 160 255
-1.341099 0.525453 1.818551 0 160 255
1.117616 0.104449 0.686103 0 160 255
1.098081 0.119411 -0.963005 0 160 255
1.120337 0.104784 -0.964313 0 160 255
-1.120576 0.103578 0.687569 70 167 224
-1.088802 0.154050 0.703314 73 169 225
-1.101719 0.405499 0.765153 52 157 220
1.111162 0.432757 0.743703 189 189 189
1.129913 0.438775 0.751118 191 191 191
1.102857 0.424014 0.753421 189 189 189
-1.341099 0.525453 1.818551 3 149 235
1.222545 0.528617 1.596798 7 138 216
1.396688 0.097297 1.647296 23 88 126
1.247110 0.097430 1.637136 21 93 136
1.277556 0.347454 1.654912 10 125 192
1.533511 0.635179 -1.042038 6 139 217
1.129913 0.438775 0.751118 20 100 150
1.129951 0.416862 0.778695 22 92 133
1.429598 0.412606 0.776986 9 128 195
1.410423 0.439732 0.743890 10 123 191
-0.343895 1.361898 0.825829 0 160 255
0.293762 1.278062 0.891698 140 189 217
0.310818 1.297359 0.889998 140 189 217
0.340982 1.366199 0.818677 143 190 218
-0.313946 1.336907 0.863973 80 168 219
-0.296405 1.277095 0.893000 98 175 219
-1.096657 0.418199 0.745638 44 174 249
-1.445252 0.392403 0.778270 5 162 255
-1.101719 0.405499 0.765153 47 174 248
-1.445252 0.392403 0.778270 0 160 255
-1.127029 0.399431 0.785693 0 160 255
-1.120576 0.103578 0.687569 6 141 221
-0.971468 0.539590 1.630060 1 155 243
1.265296 0.325061 -2.110560 28 106 155
1.321255 0.194341 -1.826278 27 97 137
1.305704 0.633519 -1.825812 22 167 253
1.251767 0.635795 -2.110690 23 167 253
1.265436 0.614168 -2.110516 23 167 253
0.300536 1.064816 1.294762 43 152 216
0.319313 1.041687 1.330536 33 149 217
1.305507 0.297374 -2.110739 21 130 197
1.277859 0.270441 -2.112832 15 140 211
1.265436 0.614168 -2.110516 70 181 248
-1.280309 0.270416 -2.112873 9 117 182
-1.307959 0.297350 -2.110780 8 124 190
1.251767 0.635795 -2.110690 85 185 246
-1.340939 0.341757 1.976150 3 150 237
1.158473 0.098947 2.076537 9 134 207
1.146506 0.160666 2.118344 5 143 224
0.333917 0.259896 2.441875 1 157 249
0.600832 0.096673 2.335070 18 104 155
-0.305063 1.080414 1.267433 49 163 235
1.423751 0.100194 0.692391 24 79 110
1.429598 0.412606 0.776986 4 148 235
1.524265 0.130802 -0.985089 11 125 193
1.517887 0.089830 -0.980006 6 144 226
-1.148249 0.175518 2.136148 0 160 255
1.145325 0.175077 2.135745 4 147 229
1.378993 0.097414 1.831066 16 105 157
1.364972 0.344370 1.939130 1 156 246
0.353193 0.335953 2.454661 0 160 254
0.437878 0.268657 2.448786 2 154 244
0.353193 0.335953 2.454661 0 160 255
0.269051 0.769409 1.759186 2 155 246
-0.343895 1.361898 0.825829 69 164 219
-0.288483 0.736359 1.809906 0 159 252
-0.311407 0.674145 1.846953 0 159 252
-0.749684 0.332487 2.360247 3 147 231
0.353193 0.335953 2.454661 0 157 247
-1.234574 0.422390 1.986946 2 153 243
-0.995656 0.550332 1.799698 1 157 250
-0.977578 0.506936 1.820930 1 158 251
1.429598 0.412606 0.776986 4 148 236
1.423751 0.100194 0.692391 22 89 128
1.408402 0.137273 0.732679 24 86 123
1.410308 0.326775 0.780192 5 142 221
1.388091 0.376207 0.790169 7 137 215
1.410423 0.439732 0.743890 5 143 222
-1.254225 0.635772 -2.110730 55 176 251
1.251767 0.635795 -2.110690 0 160 255
1.321255 0.194341 -1.826278 28 97 137
-0.268031 0.803404 1.695900 1 157 250
-0.343895 1.361898 0.825829 7 138 216
-0.336787 1.370043 0.798016 7 137 215
-0.344267 1.358627 0.775112 7 137 214
-0.356736 1.352787 0.790367 7 138 215
-0.420857 1.196371 0.761971 7 136 213
-1.345330 0.556114 1.610889 0 160 255
-1.415370 0.097925 1.697362 12 117 177
-0.048178 1.196353 0.355231 127 133 145
-0.307630 1.244989 0.400151 127 133 145
-0.130392 1.178036 0.295679 127 133 145
0.250197 1.199076 0.333013 127 133 145
0.296730 1.322923 0.498952 127 133 145
0.210958 1.227093 0.385150 127 133 145
-0.225123 1.437709 0.584243 176 179 186
-0.249147 1.319937 0.442851 124 129 138
-0.299777 1.407070 0.462824 154 157 167
-0.248684 1.491803 0.557214 173 176 184
-0.142993 1.504956 0.594253 181 184 193
-0.051454 1.477762 0.645064 182 185 191
0.225657 1.286589 0.364927 127 133 145
0.233005 1.441057 0.613039 127 133 145
0.215303 1.467152 0.573919 127 133 145
0.215303 1.467152 0.573919 167 172 180
0.233005 1.441057 0.613039 164 169 177
0.250197 1.199076 0.333013 91 97 104
0.315806 1.355606 0.423267 131 136 148
0.295682 1.481823 0.557573 162 165 174
0.245171 1.491381 0.656458 162 165 174
0.296730 1.322923 0.498952 133 139 150
-0.050138 1.567164 0.633715 174 177 184
-0.289264 1.469556 0.622993 173 177 184
0.212143 1.258452 0.298797 80 84 91
-0.130392 1.178036 0.295679 68 71 76
-0.261381 1.259514 0.322401 94 99 107
-0.177286 1.254037 0.342325 80 84 89
0.225657 1.286589 0.364927 95 100 107
-0.299777 1.407070 0.462824 127 133 145
-0.261381 1.259514 0.322401 127 133 145
-0.050138 1.567164 0.633715 127 133 145
-0.289264 1.469556 0.622993 127 133 145
-0.125114 1.503512 0.680553 127 133 145
-0.177286 1.254037 0.342325 127 133 145
0.245171 1.491381 0.656458 127 133 145
-0.249147 1.319937 0.442851 127 133 145
-0.225123 1.437709 0.584243 127 133 145
-0.051454 1.477762 0.645064 127 133 145
-0.142993 1.504956 0.594253 127 133 145
-0.248684 1.491803 0.557214 127 133 145
0.227587 1.240191 0.359838 255 255 255
0.261958 1.279106 0.396745 255 255 255
0.139530 1.332633 0.455120 212 212 212
0.118681 1.385603 0.508406 101 101 101
0.037141 1.422339 0.549184 141 141 141
0.037460 1.505621 0.645383 255 255 255
-0.038243 1.508096 0.643088 255 255 255
-0.038543 1.419282 0.547436 117 117 117
-0.119481 1.385609 0.508413 92 92 92
-0.143059 1.332248 0.452055 230 230 230
0.108947 1.295919 0.413221 106 106 106
-0.265778 1.277146 0.399596 255 255 255
-0.231412 1.243170 0.358087 255 255 255
-0.105343 1.296190 0.415639 144 144 144
-0.598711 0.472471 0.246883 223 217 198
-0.603257 0.357454 0.293840 217 209 182
-0.608006 0.438751 0.230038 219 213 190
-0.608121 0.489252 -0.433126 217 209 182
-0.563244 0.768700 -0.648664 196 189 165
-0.540391 0.435858 -0.510236 124 121 115
-0.582933 0.711241 -0.633680 174 166 145
-0.591319 0.662057 -0.603356 154 150 133
0.354300 0.317022 -0.638456 143 142 133
0.386218 0.335941 0.154965 209 202 180
0.318194 0.321697 0.122729 205 197 170
0.363909 0.298519 0.237340 217 211 192
0.405638 0.331813 0.214014 217 211 193
0.426863 0.277386 0.284466 213 207 193
-0.562825 0.330318 0.308962 204 196 170
-0.366448 0.298511 0.237340 219 213 196
-0.332289 0.319368 0.178659 219 213 195
-0.390313 0.321081 0.211162 219 213 194
-0.335162 0.287411 -0.561541 180 179 174
0.358919 0.539912 -0.820753 135 131 126
0.374133 0.443376 -0.764603 160 159 152
-0.386121 0.378021 -0.702807 191 190 186
-0.361467 0.539872 -0.820755 154 152 145
0.399033 0.368172 -0.661628 153 151 143
0.567400 0.575950 -0.519285 169 165 152
0.569125 0.543850 -0.463336 168 165 152
0.561825 0.503035 -0.363566 158 154 139
0.597843 0.490138 -0.435525 145 142 128
0.575990 0.482147 0.223532 217 210 188
0.588778 0.662072 -0.603351 177 170 148
0.560701 0.768723 -0.648660 208 200 174
0.602566 0.657708 -0.619116 173 167 147
-0.332289 0.319368 0.178659 219 214 196
-0.366448 0.298511 0.237340 219 214 196
-0.568320 0.420438 0.293070 219 214 191
-0.598711 0.472471 0.246883 222 217 197
-0.335162 0.287411 -0.561541 186 184 179
-0.608121 0.489252 -0.433126 121 117 106
-0.608175 0.603621 -0.614102 135 131 115
0.501491 1.546241 -0.852143 234 232 219
0.552950 0.696859 -0.627089 186 179 157
0.388044 1.628746 -0.976414 234 228 211
0.594037 0.348249 0.320828 217 209 182
0.593231 0.477390 0.235919 217 209 182
0.597843 0.490138 -0.435525 218 211 187
0.605469 0.438766 0.230042 217 209 182
0.513512 1.501184 -0.888283 237 232 218
0.527787 1.471232 -0.869575 235 230 215
0.522632 1.503705 -0.844971 235 230 217
0.327433 1.645974 -1.030617 228 223 206
0.042751 1.589389 -1.158590 243 241 234
-0.519350 1.045853 -0.738281 217 209 182
-0.397627 1.556834 -0.952165 243 240 232
-0.406109 1.577309 -1.020800 238 237 225
0.593231 0.477390 0.235919 220 213 190
0.594037 0.348249 0.320828 224 218 201
0.426863 0.277386 0.284466 226 220 203
0.405638 0.331813 0.214014 224 217 199
0.575990 0.482147 0.223532 220 213 190
0.606772 0.649251 -0.643435 167 160 141
-0.568320 0.420438 0.293070 217 209 182
-0.366448 0.298511 0.237340 217 209 182
-0.562825 0.330318 0.308962 217 209 182
-0.534012 1.493467 -0.883090 230 225 209
-0.568320 0.420438 0.293070 220 215 192
4 0 1 2 3
4 4 5 6 7
4 8 9 10 11
3 12 13 14
3 14 0 3
3 3 15 16
3 16 12 14
3 14 3 16
4 17 18 19 20
3 21 22 23
3 24 25 26
3 27 28 29
3 24 26 27
3 29 30 24
3 27 29 24
3 31 32 33
3 34 35 36
3 36 31 33
3 33 34 36
3 37 38 39
3 40 41 42
3 43 44 45
3 45 40 42
3 42 43 45
3 46 47 48
3 48 49 22
3 21 50 46
3 48 22 21
3 48 21 46
3 51 52 53
3 53 31 36
3 36 35 54
3 54 55 51
3 51 53 36
3 36 54 51
3 56 57 58
3 59 60 61
3 62 63 55
3 64 65 66
3 67 63 62
3 62 68 69
3 69 70 42
3 69 42 71
3 72 67 62
3 62 69 71
3 62 71 72
3 73 74 75
3 75 76 77
3 75 77 73
3 2 78 79
3 79 80 81
3 81 15 3
3 3 2 79
3 79 81 3
3 82 83 84
3 84 53 52
3 84 52 82
4 85 50 86 87
3 88 89 90
3 91 92 93
3 57 94 58
4 37 39 58 94
3 95 96 47
3 47 97 8
3 47 8 95
3 98 99 35
3 100 101 83
3 82 52 100
3 100 83 82
3 102 103 104
3 105 106 107
3 102 104 105
3 102 105 107
3 39 108 109
3 109 110 58
3 39 109 58
3 111 112 113
3 113 114 115
3 113 115 111
3 116 117 118
3 118 119 120
3 118 120 116
3 121 122 123
3 124 125 126
3 124 126 127
3 106 124 127
3 107 106 127
3 127 128 107
4 74 73 129 130
3 131 132 133
3 131 133 134
3 57 56 131
3 135 136 57
3 131 134 135
3 135 57 131
3 29 28 137
3 137 138 130
3 130 129 30
3 29 137 130
3 29 130 30
3 139 140 141
3 142 143 144
3 145 146 119
3 119 118 147
3 119 147 145
3 148 87 149
3 150 151 152
3 148 149 150
3 153 17 148
3 148 150 152
3 152 153 148
4 154 84 83 155
3 156 157 158
3 159 160 161
3 50 162 163
3 50 163 164
3 156 158 165
3 166 156 165
3 161 50 164
3 167 168 169
3 161 164 167
3 166 165 159
3 167 169 170
3 170 166 159
3 159 161 167
3 170 159 167
3 171 172 27
3 26 173 174
3 26 174 175
3 171 27 26
3 171 26 175
3 176 39 38
3 177 178 179
3 78 73 77
3 80 79 78
3 77 80 78
3 1 180 26
3 26 25 2
3 26 2 1
3 137 181 182
3 183 184 185
3 186 137 182
3 183 185 186
3 182 183 186
3 187 37 94
3 94 57 136
3 136 128 187
3 187 94 136
3 188 189 190
3 144 191 39
3 39 176 188
3 188 190 144
3 39 188 144
3 192 193 109
3 108 194 195
3 195 192 109
3 109 108 195
3 54 35 196
3 196 197 198
3 198 199 200
3 200 55 54
3 196 198 200
3 54 196 200
3 201 202 181
3 181 137 28
3 172 201 181
3 181 28 172
3 127 133 132
3 132 176 38
3 38 37 187
3 38 187 128
3 127 132 38
3 38 128 127
3 203 204 205
3 205 49 48
3 203 205 48
3 172 28 27
3 206 207 70
3 70 69 208
3 70 208 206
3 209 64 66
3 210 211 209
3 209 66 210
3 129 73 78
3 78 24 30
3 78 30 129
3 212 131 56
3 56 58 110
3 213 212 56
3 56 110 213
3 214 31 53
3 53 84 206
3 206 208 214
3 53 206 214
3 215 216 217
3 215 217 218
3 219 66 65
3 220 219 65
3 65 215 218
3 220 65 218
3 218 221 220
3 138 137 186
3 186 185 1
3 1 222 223
3 223 138 186
3 186 1 223
3 224 225 226
3 110 193 227
3 110 227 228
3 224 226 213
3 213 110 228
3 224 213 228
3 229 104 103
3 230 127 126
3 230 126 231
3 229 103 230
3 229 230 231
4 232 46 50 85
3 232 233 234
3 235 236 237
3 97 232 234
3 235 237 238
3 97 234 235
3 238 239 151
3 8 97 235
3 238 151 9
3 8 235 238
3 238 9 8
3 240 241 242
3 243 244 222
3 1 0 222
3 203 245 204
3 24 78 25
3 132 131 246
3 132 246 176
3 78 2 25
3 51 55 63
3 63 67 52
3 63 52 51
3 62 247 208
3 208 69 68
3 208 68 62
3 42 70 207
3 207 83 101
3 67 72 248
3 67 248 92
3 43 42 207
3 101 67 92
3 92 43 207
3 207 101 92
3 249 196 250
3 249 250 32
3 32 31 249
4 251 252 253 254
3 255 256 257
3 257 258 259
3 260 261 262
3 255 257 259
3 259 260 262
3 263 255 259
3 263 259 262
3 251 264 265
3 265 266 267
3 267 268 254
3 254 251 265
3 265 267 254
4 269 270 271 272
3 273 274 275
3 275 276 277
3 277 278 279
3 279 280 281
3 281 282 273
3 273 275 277
3 279 281 273
3 273 277 279
3 283 284 285
3 286 287 288
3 289 283 285
3 286 288 290
3 291 289 285
3 286 290 292
3 293 291 285
3 286 292 294
3 293 285 286
3 286 294 293
3 295 296 297
3 297 298 299
3 299 300 295
3 295 297 299
4 301 302 303 304
4 305 306 307 308
4 309 305 308 310
3 267 268 253
3 253 311 266
3 253 266 267
4 312 313 314 315
3 316 317 318
3 319 320 321
3 321 322 323
3 323 324 325
3 325 326 327
3 327 319 321
3 321 323 325
3 327 321 325
3 328 329 330
3 331 332 333
3 328 330 331
3 334 335 328
3 333 336 337
3 337 334 328
3 328 331 333
3 333 337 328
4 338 339 307 306
3 340 341 342
3 343 344 286
3 286 285 345
3 343 286 345
3 346 347 348
3 348 349 350
3 348 350 351
3 346 348 351
3 352 353 354
3 346 351 352
3 352 354 346
3 355 328 335
3 335 356 357
3 335 357 355
3 266 311 358
3 359 360 266
3 358 359 266
3 273 297 361
3 361 362 363
3 363 313 312
3 312 275 274
3 274 273 361
3 361 363 312
3 361 312 274
3 364 365 309
3 309 366 367
3 367 368 288
3 369 364 309
3 367 288 369
3 309 367 369
3 349 370 371
3 371 347 348
3 371 348 349
3 329 328 355
3 292 290 372
3 372 373 374
3 372 374 292
4 280 375 278 279
3 376 377 378
3 378 379 380
3 378 380 376
4 304 303 381 382
4 383 366 309 310
3 384 385 386
3 387 388 389
3 389 390 271
3 271 391 387
3 387 389 271
3 392 393 394
3 340 395 396
3 397 398 399
3 400 311 401
3 252 402 401
3 401 311 253
3 401 253 252
3 360 266 370
3 370 349 350
3 370 350 360
3 403 404 405
3 325 324 406
3 407 269 272
3 272 271 408
3 408 409 410
3 410 407 272
3 410 272 408
3 411 277 276
3 276 312 412
3 412 413 414
3 415 411 276
3 412 414 415
3 276 412 415
3 416 392 393
3 417 418 419
3 419 420 421
3 419 421 417
3 422 251 423
3 423 376 424
3 423 424 422
3 395 340 342
3 371 370 425
3 426 354 346
3 346 347 371
3 371 425 426
3 371 426 346
3 311 427 358
3 325 428 326
3 429 430 431
3 431 432 433
3 431 433 429
3 417 434 418
3 418 435 419
3 292 436 437
3 437 429 438
3 292 437 438
3 439 440 294
3 343 345 439
3 343 439 294
3 292 438 441
3 344 343 294
3 292 441 344
3 294 292 344
3 342 442 321
3 321 257 256
3 321 256 342
4 443 444 445 446
3 420 447 421
3 382 419 435
3 448 449 375
3 375 450 451
3 375 451 448
3 268 254 253
3 452 263 342
3 453 443 454
3 454 455 456
3 456 457 453
3 453 454 456
3 458 342 263
3 312 276 275
4 459 270 304 382
3 382 381 460
3 419 382 460
3 420 419 460
3 447 420 460
3 417 421 447
3 435 418 434
3 434 417 447
3 447 460 461
3 434 447 461
3 459 435 434
3 391 271 270
3 459 434 461
3 387 391 270
3 270 459 461
3 270 461 462
3 388 387 270
3 463 464 388
3 406 465 463
3 428 325 406
3 466 428 406
3 406 463 388
3 388 270 462
3 467 466 406
3 388 462 467
3 467 406 388
3 263 452 255
3 468 469 470
3 471 472 468
3 468 470 471
3 375 449 473
3 467 428 466
3 278 375 277
3 474 475 369
3 369 288 287
3 286 474 369
3 369 287 286
3 345 285 284
3 284 476 429
3 345 284 429
3 429 437 439
3 429 439 345
3 462 461 477
3 477 478 479
3 479 480 481
3 481 482 462
3 462 477 479
3 479 481 462
3 340 396 483
3 483 318 484
3 484 341 340
3 483 484 340
3 485 486 487
3 488 489 490
3 490 485 487
3 487 488 490
4 491 492 493 494
4 491 494 495 496
4 497 489 498 499
4 495 500 501 496
3 502 503 504
3 504 505 506
3 504 506 502
4 507 500 495 508
3 504 503 509
3 509 510 511
3 511 493 512
3 513 500 504
3 511 512 513
3 513 504 509
3 509 511 513
3 510 509 502
3 490 489 497
3 514 515 486
3 502 509 503
3 516 517 518
4 490 497 519 485
3 515 487 486
3 493 492 512
3 498 489 520
3 486 519 521
3 486 521 522
3 498 520 518
3 523 498 518
3 517 486 522
3 522 523 518
3 522 518 517
3 507 505 504
3 486 517 514
3 518 520 516
3 485 519 486
3 504 500 507
3 517 524 525
3 517 525 514
3 526 527 528
3 528 529 530
3 530 531 532
3 533 534 535
3 530 532 533
3 526 528 530
3 536 526 530
3 530 533 535
3 535 537 538
3 539 536 530
3 535 538 539
3 530 535 539
4 540 541 542 543
4 544 545 546 547
3 548 549 550
3 551 552 553
3 551 553 554
3 551 554 555
3 550 551 555
3 556 557 558
3 550 555 556
3 559 560 548
3 548 550 556
3 558 545 561
3 548 556 558
3 562 559 548
3 558 561 562
3 548 558 562
3 563 564 565
3 565 566 567
3 567 568 552
3 552 551 550
3 549 548 563
3 552 550 549
3 565 567 552
3 549 563 565
3 565 552 549
3 569 570 571
3 567 566 565
3 565 569 571
3 571 567 565
3 557 572 573
3 573 574 575
3 557 573 575
3 545 576 557
3 545 557 575
3 545 575 577
3 546 545 577
3 577 578 546
3 579 570 580
3 580 564 563
3 563 560 559
3 559 581 579
3 579 580 563
3 563 559 579
4 582 583 584 585
3 563 548 560
3 586 587 588
3 588 579 581
3 581 589 590
3 590 586 588
3 588 581 590
3 569 580 570
3 544 546 591
3 592 593 590
3 594 595 596
3 596 597 598
3 596 598 594
3 598 584 594
3 588 587 599
3 599 567 571
3 599 571 588
3 600 601 602
4 571 570 579 588
4 569 565 564 580
3 603 593 592
3 592 590 562
3 562 561 545
3 545 544 591
3 591 546 603
3 603 592 562
3 562 545 591
3 603 562 591
4 541 540 604 602
3 578 603 546
3 547 546 544
3 562 590 589
3 589 581 559
3 589 559 562
