ply
format ascii 1.0
comment Created by Blender 2.77 (sub 0) - www.blender.org, source file: 'powerup.blend'
element vertex 8
property float x
property float y
property float z
property uchar red
property uchar green
property uchar blue
element face 12
property list uchar uint vertex_indices
end_header
1.000000 -1.000000 1.000000 255 70 61
-1.000000 -1.000000 -1.000000 255 70 61
1.000000 -1.000000 -1.000000 255 70 61
-1.000000 1.000000 -1.000000 255 70 61
0.999999 1.000000 1.000001 255 70 61
1.000000 1.000000 -0.999999 255 70 61
-1.000000 -1.000000 1.000000 255 70 61
-1.000000 1.000000 1.000000 255 70 61
3 0 1 2
3 3 4 5
3 5 0 2
3 4 6 0
3 6 3 1
3 2 3 5
3 0 6 1
3 3 7 4
3 5 4 0
3 4 7 6
3 6 7 3
3 2 1 3
