ply
format ascii 1.0
comment Created by Blender 2.77 (sub 0) - www.blender.org, source file: 'powerup.blend'
element vertex 8
property float x
property float y
property float z
property uchar red
property uchar green
property uchar blue
element face 6
property list uchar uint vertex_indices
end_header
5.000000 -5.000000 -5.000000 255 70 61
5.000000 -5.000000 5.000000 255 70 61
-5.000000 -5.000000 4.999999 255 70 61
-4.999998 -5.000000 -5.000002 255 70 61
5.000002 5.000000 -4.999997 255 70 61
-5.000000 5.000000 -5.000000 255 70 61
-5.000002 5.000000 4.999998 255 70 61
4.999997 5.000000 5.000003 255 70 61
4 0 1 2 3
4 4 5 6 7
4 0 4 7 1
4 1 7 6 2
4 2 6 5 3
4 4 0 3 5
