ply
format ascii 1.0
comment Created by Blender 2.77 (sub 0) - www.blender.org, source file: 'road_straight_3_merged.blend'
element vertex 211
property float x
property float y
property float z
property uchar red
property uchar green
property uchar blue
element face 106
property list uchar uint vertex_indices
end_header
99.999992 0.000000 -37.500008 255 255 255
87.500015 0.000000 -31.250000 255 255 255
100.000000 0.000000 -31.250006 255 255 255
87.500008 0.000000 -37.500008 122 37 45
75.000015 0.000001 -31.250000 122 36 44
87.500015 0.000000 -31.250006 122 36 44
62.500008 0.000000 -37.500008 122 37 45
50.000011 0.000001 -31.250006 122 36 44
62.500019 0.000000 -31.250006 122 36 44
74.999992 0.000000 -37.500008 255 255 255
62.500011 0.000000 -31.250006 255 255 255
75.000008 0.000000 -31.250006 255 255 255
49.999996 0.000000 -37.500008 255 255 255
37.500015 0.000000 -31.250011 255 255 255
50.000008 0.000000 -31.250006 255 255 255
37.500008 0.000000 -37.500008 122 37 45
25.000015 0.000001 -31.250006 122 36 44
37.500019 0.000000 -31.250006 122 36 44
12.500009 0.000000 -37.500011 122 37 45
0.000015 0.000001 -31.250010 122 36 44
12.500021 0.000000 -31.250011 122 36 44
24.999996 0.000000 -37.500008 255 255 255
12.500013 0.000000 -31.250011 255 255 255
25.000010 0.000000 -31.250006 255 255 255
-0.000003 0.000000 -37.500011 255 255 255
-12.499989 0.000000 -31.250011 255 255 255
0.000009 0.000000 -31.250011 255 255 255
-12.499991 0.000000 -37.500011 122 37 45
-24.999985 0.000001 -31.250011 122 36 44
-12.499979 0.000000 -31.250011 122 36 44
-37.499989 0.000000 -37.500015 122 37 45
-49.999985 0.000001 -31.250011 122 36 44
-37.499977 0.000000 -31.250015 122 36 44
-25.000000 0.000000 -37.500015 255 255 255
-37.499989 0.000000 -31.250015 255 255 255
-24.999989 0.000000 -31.250015 255 255 255
-50.000008 0.000000 -37.500015 255 255 255
-62.499989 0.000000 -31.250017 255 255 255
-49.999989 0.000000 -31.250015 255 255 255
-62.499992 0.000000 -37.500019 122 37 45
-74.999985 0.000001 -31.250015 122 36 44
-62.499981 0.000000 -31.250017 122 36 44
-87.500000 0.000000 -37.500019 122 37 45
-99.999985 0.000001 -31.250017 122 36 44
-87.499977 0.000000 -31.250017 122 36 44
-75.000000 0.000000 -37.500019 255 255 255
-87.499985 0.000000 -31.250017 255 255 255
-75.000000 0.000000 -31.250017 255 255 255
-75.000008 0.000000 31.249983 255 255 255
-87.499985 0.000000 37.499977 255 255 255
-74.999992 0.000000 37.499981 255 255 255
-87.499992 0.000000 31.249983 122 37 45
-99.999985 0.000001 37.499977 122 36 44
-87.499985 0.000000 37.499981 122 36 44
-62.499992 0.000000 31.249983 122 37 45
-74.999985 0.000001 37.499989 122 36 44
-62.499981 0.000000 37.499981 122 36 44
-50.000008 0.000000 31.249983 255 255 255
-62.499989 0.000000 37.499981 255 255 255
-49.999996 0.000000 37.499981 255 255 255
-25.000010 0.000000 31.249983 255 255 255
-37.499992 0.000000 37.499989 255 255 255
-24.999996 0.000000 37.499981 255 255 255
-37.499996 0.000000 31.249983 122 37 45
-49.999992 0.000001 37.499989 122 36 44
-37.499985 0.000000 37.499981 122 36 44
-12.499997 0.000000 31.249989 122 37 45
-24.999990 0.000001 37.499989 122 36 44
-12.499985 0.000000 37.499989 122 36 44
-0.000009 0.000000 31.249989 255 255 255
-12.499994 0.000000 37.499989 255 255 255
0.000003 0.000000 37.499989 255 255 255
24.999989 0.000000 31.249990 255 255 255
12.500006 0.000000 37.499989 255 255 255
25.000000 0.000000 37.499992 255 255 255
12.500003 0.000000 31.249989 122 37 45
0.000009 0.000001 37.499992 122 36 44
12.500011 0.000000 37.499989 122 36 44
37.500000 0.000000 31.249990 122 37 45
25.000010 0.000001 37.499992 122 36 44
37.500011 0.000000 37.499992 122 36 44
49.999989 0.000000 31.249990 255 255 255
37.500011 0.000000 37.499992 255 255 255
50.000008 0.000000 37.499992 255 255 255
75.000000 0.000000 31.249994 255 255 255
62.500011 0.000000 37.499992 255 255 255
75.000000 0.000000 37.499992 255 255 255
62.500008 0.000000 31.249994 122 37 45
50.000011 0.000001 37.499992 122 36 44
62.500023 0.000000 37.499992 122 36 44
87.500000 0.000000 31.249994 122 37 45
75.000015 0.000001 37.499996 122 36 44
87.500023 0.000000 37.499992 122 36 44
100.000000 0.000000 31.249994 255 255 255
87.500015 0.000000 37.499992 255 255 255
100.000000 0.000000 37.499992 255 255 255
-66.612556 0.000003 -1.987594 120 122 121
-83.387413 0.000003 1.987559 120 122 121
-66.612556 0.000003 1.987565 120 122 121
-41.612572 0.000003 -1.987591 120 122 121
-58.387417 0.000003 1.987559 120 122 121
-41.612572 0.000003 1.987565 120 122 121
-16.612566 0.000003 -1.987590 120 122 121
-33.387405 0.000003 1.987562 120 122 121
-16.612566 0.000003 1.987566 120 122 121
8.387434 0.000003 -1.987588 120 122 121
-8.387411 0.000003 1.987564 120 122 121
8.387434 0.000003 1.987568 120 122 121
33.387436 0.000003 -1.987585 120 122 121
16.612589 0.000003 1.987566 120 122 121
33.387436 0.000003 1.987571 120 122 121
58.387436 0.000003 -1.987582 120 122 121
41.612591 0.000003 1.987568 120 122 121
58.387436 0.000003 1.987571 120 122 121
83.387436 0.000003 -1.987582 120 122 121
66.612587 0.000003 1.987571 120 122 121
83.387436 0.000003 1.987571 120 122 121
91.612602 0.000003 -1.987630 120 122 121
-91.497368 0.000003 -31.239246 120 122 121
-91.497368 0.000003 -1.977021 120 122 121
91.612595 0.000003 31.249737 120 122 121
-91.497368 0.000003 1.987559 120 122 121
-91.497437 0.000003 31.249983 120 122 121
-91.497498 0.000003 -31.250011 120 122 121
-100.000015 0.000003 31.249977 120 122 121
100.000015 0.000003 -31.250000 120 122 121
91.612587 0.000003 31.249989 120 122 121
100.000015 0.000003 31.249994 120 122 121
-83.387413 0.000003 -1.987594 120 122 121
-58.387428 0.000003 -1.987594 120 122 121
-33.387417 0.000003 -1.987591 120 122 121
-8.387411 0.000003 -1.987590 120 122 121
16.612589 0.000003 -1.987588 120 122 121
41.612591 0.000003 -1.987585 120 122 121
66.612587 0.000003 -1.987582 120 122 121
91.612640 0.000003 -31.239246 120 122 121
91.612602 0.000003 1.987571 120 122 121
-100.000000 0.000003 -31.250011 120 122 121
91.612648 0.000003 -31.250000 120 122 121
-91.497368 0.000000 1.987559 249 255 252
-83.387413 0.000000 -1.987594 249 255 252
-91.497368 0.000000 -1.987594 249 255 252
-66.612564 0.000000 1.987559 249 255 252
-58.387409 0.000000 -1.987594 249 255 252
-66.612564 0.000000 -1.987594 249 255 252
-41.612564 0.000000 1.987562 249 255 252
-33.387409 0.000000 -1.987591 249 255 252
-41.612564 0.000000 -1.987594 249 255 252
-16.612566 0.000000 1.987565 249 255 252
-8.387411 0.000000 -1.987591 249 255 252
-16.612566 0.000000 -1.987591 249 255 252
8.387434 0.000000 1.987567 249 255 252
16.612589 0.000000 -1.987588 249 255 252
8.387434 0.000000 -1.987589 249 255 252
33.387436 0.000000 1.987568 249 255 252
41.612591 0.000000 -1.987585 249 255 252
33.387436 0.000000 -1.987588 249 255 252
58.387436 0.000000 1.987571 249 255 252
66.612587 0.000000 -1.987582 249 255 252
58.387436 0.000000 -1.987588 249 255 252
83.387436 0.000000 1.987571 249 255 252
91.612587 0.000000 -1.987582 249 255 252
83.387436 0.000000 -1.987582 249 255 252
100.000015 0.000000 37.500000 81 255 81
-99.999992 0.000000 99.999977 84 255 84
100.000000 0.000000 100.000000 81 255 81
100.000023 0.000000 -100.000000 81 255 81
-99.999985 0.000000 -37.500023 83 255 83
100.000015 0.000000 -37.500000 81 255 81
87.500008 0.000000 -37.500008 255 255 255
75.000015 0.000001 -37.500000 122 36 44
50.000011 0.000001 -37.500008 122 36 44
62.500008 0.000000 -37.500008 255 255 255
37.500008 0.000000 -37.500008 255 255 255
25.000015 0.000001 -37.500008 122 36 44
0.000015 0.000001 -37.500008 122 36 44
12.500009 0.000000 -37.500011 255 255 255
-12.499991 0.000000 -37.500011 255 255 255
-24.999985 0.000001 -37.500011 122 36 44
-49.999985 0.000001 -37.500011 122 36 44
-37.499989 0.000000 -37.500015 255 255 255
-62.499992 0.000000 -37.500019 255 255 255
-74.999985 0.000001 -37.500015 122 36 44
-99.999985 0.000001 -37.500019 122 36 44
-87.500000 0.000000 -37.500019 255 255 255
-87.499992 0.000000 31.249983 255 255 255
-99.999985 0.000001 31.249977 122 36 44
-74.999985 0.000001 31.249989 122 36 44
-62.499992 0.000000 31.249983 255 255 255
-37.499996 0.000000 31.249983 255 255 255
-49.999992 0.000001 31.249989 122 36 44
-24.999990 0.000001 31.249989 122 36 44
-12.499997 0.000000 31.249989 255 255 255
12.500003 0.000000 31.249989 255 255 255
0.000009 0.000001 31.249990 122 36 44
25.000010 0.000001 31.249994 122 36 44
37.500000 0.000000 31.249990 255 255 255
62.500008 0.000000 31.249994 255 255 255
50.000011 0.000001 31.249994 122 36 44
75.000015 0.000001 31.249996 122 36 44
87.500000 0.000000 31.249994 255 255 255
-83.387413 0.000000 1.987559 249 255 252
-58.387409 0.000000 1.987565 249 255 252
-33.387409 0.000000 1.987565 249 255 252
-8.387411 0.000000 1.987565 249 255 252
16.612589 0.000000 1.987568 249 255 252
41.612591 0.000000 1.987571 249 255 252
66.612587 0.000000 1.987571 249 255 252
91.612587 0.000000 1.987571 249 255 252
-99.999985 0.000000 37.499977 81 255 81
-99.999977 0.000000 -100.000023 81 255 81
3 0 1 2
3 3 4 5
3 6 7 8
3 9 10 11
3 12 13 14
3 15 16 17
3 18 19 20
3 21 22 23
3 24 25 26
3 27 28 29
3 30 31 32
3 33 34 35
3 36 37 38
3 39 40 41
3 42 43 44
3 45 46 47
3 48 49 50
3 51 52 53
3 54 55 56
3 57 58 59
3 60 61 62
3 63 64 65
3 66 67 68
3 69 70 71
3 72 73 74
3 75 76 77
3 78 79 80
3 81 82 83
3 84 85 86
3 87 88 89
3 90 91 92
3 93 94 95
3 96 97 98
3 99 100 101
3 102 103 104
3 105 106 107
3 108 109 110
3 111 112 113
3 114 115 116
3 117 118 119
3 120 121 122
3 123 124 122
3 125 126 127
3 96 128 97
3 99 129 100
3 102 130 103
3 105 131 106
3 108 132 109
3 111 133 112
3 114 134 115
3 117 135 118
3 120 136 121
3 123 137 124
3 125 138 126
3 139 140 141
3 142 143 144
3 145 146 147
3 148 149 150
3 151 152 153
3 154 155 156
3 157 158 159
3 160 161 162
3 163 164 165
3 166 167 168
3 0 169 1
3 3 170 4
3 6 171 7
3 9 172 10
3 12 173 13
3 15 174 16
3 18 175 19
3 21 176 22
3 24 177 25
3 27 178 28
3 30 179 31
3 33 180 34
3 36 181 37
3 39 182 40
3 42 183 43
3 45 184 46
3 48 185 49
3 51 186 52
3 54 187 55
3 57 188 58
3 60 189 61
3 63 190 64
3 66 191 67
3 69 192 70
3 72 193 73
3 75 194 76
3 78 195 79
3 81 196 82
3 84 197 85
3 87 198 88
3 90 199 91
3 93 200 94
3 139 201 140
3 142 202 143
3 145 203 146
3 148 204 149
3 151 205 152
3 154 206 155
3 157 207 158
3 160 208 161
3 163 209 164
3 166 210 167
