ply
format ascii 1.0
comment Created by Blender 2.77 (sub 0) - www.blender.org, source file: 'road_straight_1_merged.blend'
element vertex 211
property float x
property float y
property float z
property uchar red
property uchar green
property uchar blue
element face 106
property list uchar uint vertex_indices
end_header
37.500000 0.000000 99.999985 255 255 255
31.250000 0.000000 87.500000 255 255 255
31.250000 0.000000 99.999992 255 255 255
37.500000 0.000000 87.499992 122 37 45
31.249996 0.000001 75.000000 122 36 44
31.250000 0.000000 87.500008 122 36 44
37.500000 0.000000 62.499992 122 37 45
31.249996 0.000001 50.000000 122 36 44
31.250000 0.000000 62.500008 122 36 44
37.500000 0.000000 74.999985 255 255 255
31.250000 0.000000 62.500000 255 255 255
31.250000 0.000000 74.999992 255 255 255
37.500000 0.000000 49.999981 255 255 255
31.250000 0.000000 37.500000 255 255 255
31.250000 0.000000 49.999992 255 255 255
37.500000 0.000000 37.499992 122 37 45
31.249996 0.000001 25.000000 122 36 44
31.250000 0.000000 37.500008 122 36 44
37.500000 0.000000 12.499994 122 37 45
31.249996 0.000001 0.000000 122 36 44
31.250000 0.000000 12.500006 122 36 44
37.500000 0.000000 24.999983 255 255 255
31.250000 0.000000 12.499998 255 255 255
31.250000 0.000000 24.999994 255 255 255
37.500000 0.000000 -0.000018 255 255 255
31.250000 0.000000 -12.500002 255 255 255
31.250000 0.000000 -0.000006 255 255 255
37.500000 0.000000 -12.500006 122 37 45
31.249996 0.000001 -25.000000 122 36 44
31.250000 0.000000 -12.499994 122 36 44
37.500000 0.000000 -37.500008 122 37 45
31.249996 0.000001 -50.000000 122 36 44
31.250000 0.000000 -37.499992 122 36 44
37.500000 0.000000 -25.000017 255 255 255
31.250000 0.000000 -37.500000 255 255 255
31.250000 0.000000 -25.000006 255 255 255
37.500000 0.000000 -50.000019 255 255 255
31.250000 0.000000 -62.500000 255 255 255
31.250000 0.000000 -50.000008 255 255 255
37.500000 0.000000 -62.500008 122 37 45
31.249996 0.000001 -75.000000 122 36 44
31.250000 0.000000 -62.499992 122 36 44
37.500000 0.000000 -87.500008 122 37 45
31.249996 0.000001 -100.000000 122 36 44
31.250000 0.000000 -87.499992 122 36 44
37.500000 0.000000 -75.000015 255 255 255
31.250000 0.000000 -87.500000 255 255 255
31.250000 0.000000 -75.000008 255 255 255
-31.250000 0.000000 -75.000015 255 255 255
-37.500000 0.000000 -87.500000 255 255 255
-37.500000 0.000000 -75.000008 255 255 255
-31.250000 0.000000 -87.500008 122 37 45
-37.500004 0.000001 -100.000000 122 36 44
-37.500000 0.000000 -87.499992 122 36 44
-31.250000 0.000000 -62.500008 122 37 45
-37.500004 0.000001 -75.000000 122 36 44
-37.500000 0.000000 -62.499992 122 36 44
-31.250000 0.000000 -50.000019 255 255 255
-37.500000 0.000000 -62.500000 255 255 255
-37.500000 0.000000 -50.000008 255 255 255
-31.250000 0.000000 -25.000017 255 255 255
-37.500000 0.000000 -37.500000 255 255 255
-37.500000 0.000000 -25.000006 255 255 255
-31.250000 0.000000 -37.500008 122 37 45
-37.500004 0.000001 -50.000000 122 36 44
-37.500000 0.000000 -37.499992 122 36 44
-31.250000 0.000000 -12.500006 122 37 45
-37.500004 0.000001 -25.000000 122 36 44
-37.500000 0.000000 -12.499994 122 36 44
-31.250000 0.000000 -0.000018 255 255 255
-37.500000 0.000000 -12.500002 255 255 255
-37.500000 0.000000 -0.000006 255 255 255
-31.250000 0.000000 24.999983 255 255 255
-37.500000 0.000000 12.499998 255 255 255
-37.500000 0.000000 24.999994 255 255 255
-31.250000 0.000000 12.499994 122 37 45
-37.500004 0.000001 0.000000 122 36 44
-37.500000 0.000000 12.500006 122 36 44
-31.250000 0.000000 37.499992 122 37 45
-37.500004 0.000001 25.000000 122 36 44
-37.500000 0.000000 37.500008 122 36 44
-31.250000 0.000000 49.999981 255 255 255
-37.500000 0.000000 37.500000 255 255 255
-37.500000 0.000000 49.999992 255 255 255
-31.250000 0.000000 74.999985 255 255 255
-37.500000 0.000000 62.500000 255 255 255
-37.500000 0.000000 74.999992 255 255 255
-31.250000 0.000000 62.499992 122 37 45
-37.500004 0.000001 50.000000 122 36 44
-37.500000 0.000000 62.500008 122 36 44
-31.250000 0.000000 87.499992 122 37 45
-37.500004 0.000001 75.000000 122 36 44
-37.500000 0.000000 87.500008 122 36 44
-31.250000 0.000000 99.999985 255 255 255
-37.500000 0.000000 87.500000 255 255 255
-37.500000 0.000000 99.999992 255 255 255
1.987576 0.000003 -66.612572 120 122 121
-1.987578 0.000003 -83.387428 120 122 121
-1.987580 0.000003 -66.612572 120 122 121
1.987576 0.000003 -41.612583 120 122 121
-1.987578 0.000003 -58.387428 120 122 121
-1.987580 0.000003 -41.612583 120 122 121
1.987577 0.000003 -16.612577 120 122 121
-1.987576 0.000003 -33.387417 120 122 121
-1.987579 0.000003 -16.612577 120 122 121
1.987577 0.000003 8.387423 120 122 121
-1.987576 0.000003 -8.387423 120 122 121
-1.987579 0.000003 8.387423 120 122 121
1.987577 0.000003 33.387421 120 122 121
-1.987576 0.000003 16.612577 120 122 121
-1.987579 0.000003 33.387421 120 122 121
1.987577 0.000003 58.387421 120 122 121
-1.987576 0.000003 41.612579 120 122 121
-1.987579 0.000003 58.387421 120 122 121
1.987577 0.000003 83.387421 120 122 121
-1.987576 0.000003 66.612579 120 122 121
-1.987579 0.000003 83.387421 120 122 121
1.987626 0.000003 91.612587 120 122 121
31.239229 0.000003 -91.497383 120 122 121
1.977000 0.000003 -91.497383 120 122 121
-31.249744 0.000003 91.612587 120 122 121
-1.987576 0.000003 -91.497383 120 122 121
-31.249996 0.000003 -91.497437 120 122 121
31.249994 0.000003 -91.497513 120 122 121
-31.249996 0.000003 -100.000023 120 122 121
31.249996 0.000003 100.000000 120 122 121
-31.249996 0.000003 91.612579 120 122 121
-31.249996 0.000003 100.000000 120 122 121
1.987576 0.000003 -83.387428 120 122 121
1.987576 0.000003 -58.387440 120 122 121
1.987577 0.000003 -33.387428 120 122 121
1.987577 0.000003 -8.387423 120 122 121
1.987577 0.000003 16.612577 120 122 121
1.987577 0.000003 41.612579 120 122 121
1.987578 0.000003 66.612579 120 122 121
31.239246 0.000003 91.612625 120 122 121
-1.987576 0.000003 91.612587 120 122 121
31.249994 0.000003 -100.000023 120 122 121
31.249996 0.000003 91.612640 120 122 121
-1.987578 0.000000 -91.497383 249 255 252
1.987578 0.000000 -83.387421 249 255 252
1.987578 0.000000 -91.497383 249 255 252
-1.987578 0.000000 -66.612579 249 255 252
1.987578 0.000000 -58.387421 249 255 252
1.987578 0.000000 -66.612579 249 255 252
-1.987578 0.000000 -41.612579 249 255 252
1.987578 0.000000 -33.387421 249 255 252
1.987578 0.000000 -41.612579 249 255 252
-1.987578 0.000000 -16.612577 249 255 252
1.987578 0.000000 -8.387423 249 255 252
1.987578 0.000000 -16.612577 249 255 252
-1.987578 0.000000 8.387423 249 255 252
1.987578 0.000000 16.612577 249 255 252
1.987578 0.000000 8.387423 249 255 252
-1.987578 0.000000 33.387421 249 255 252
1.987578 0.000000 41.612579 249 255 252
1.987578 0.000000 33.387421 249 255 252
-1.987578 0.000000 58.387421 249 255 252
1.987578 0.000000 66.612579 249 255 252
1.987578 0.000000 58.387421 249 255 252
-1.987578 0.000000 83.387421 249 255 252
1.987578 0.000000 91.612579 249 255 252
1.987578 0.000000 83.387421 249 255 252
-37.500000 0.000000 100.000000 81 255 81
-100.000000 0.000000 -100.000000 84 255 84
-100.000000 0.000000 100.000000 81 255 81
100.000000 0.000000 100.000000 81 255 81
37.500000 0.000000 -100.000000 83 255 83
37.500000 0.000000 100.000000 81 255 81
37.500000 0.000000 87.499992 255 255 255
37.499996 0.000001 75.000000 122 36 44
37.499996 0.000001 50.000000 122 36 44
37.500000 0.000000 62.499992 255 255 255
37.500000 0.000000 37.499992 255 255 255
37.499996 0.000001 25.000000 122 36 44
37.499996 0.000001 0.000000 122 36 44
37.500000 0.000000 12.499994 255 255 255
37.500000 0.000000 -12.500006 255 255 255
37.499996 0.000001 -25.000000 122 36 44
37.499996 0.000001 -50.000000 122 36 44
37.500000 0.000000 -37.500008 255 255 255
37.500000 0.000000 -62.500008 255 255 255
37.499996 0.000001 -75.000000 122 36 44
37.499996 0.000001 -100.000000 122 36 44
37.500000 0.000000 -87.500008 255 255 255
-31.250000 0.000000 -87.500008 255 255 255
-31.250004 0.000001 -100.000000 122 36 44
-31.250004 0.000001 -75.000000 122 36 44
-31.250000 0.000000 -62.500008 255 255 255
-31.250000 0.000000 -37.500008 255 255 255
-31.250004 0.000001 -50.000000 122 36 44
-31.250004 0.000001 -25.000000 122 36 44
-31.250000 0.000000 -12.500006 255 255 255
-31.250000 0.000000 12.499994 255 255 255
-31.250004 0.000001 0.000000 122 36 44
-31.250004 0.000001 25.000000 122 36 44
-31.250000 0.000000 37.499992 255 255 255
-31.250000 0.000000 62.499992 255 255 255
-31.250004 0.000001 50.000000 122 36 44
-31.250004 0.000001 75.000000 122 36 44
-31.250000 0.000000 87.499992 255 255 255
-1.987578 0.000000 -83.387421 249 255 252
-1.987578 0.000000 -58.387421 249 255 252
-1.987578 0.000000 -33.387421 249 255 252
-1.987578 0.000000 -8.387423 249 255 252
-1.987578 0.000000 16.612577 249 255 252
-1.987578 0.000000 41.612579 249 255 252
-1.987578 0.000000 66.612579 249 255 252
-1.987578 0.000000 91.612579 249 255 252
-37.500000 0.000000 -100.000000 81 255 81
100.000000 0.000000 -100.000000 81 255 81
3 0 1 2
3 3 4 5
3 6 7 8
3 9 10 11
3 12 13 14
3 15 16 17
3 18 19 20
3 21 22 23
3 24 25 26
3 27 28 29
3 30 31 32
3 33 34 35
3 36 37 38
3 39 40 41
3 42 43 44
3 45 46 47
3 48 49 50
3 51 52 53
3 54 55 56
3 57 58 59
3 60 61 62
3 63 64 65
3 66 67 68
3 69 70 71
3 72 73 74
3 75 76 77
3 78 79 80
3 81 82 83
3 84 85 86
3 87 88 89
3 90 91 92
3 93 94 95
3 96 97 98
3 99 100 101
3 102 103 104
3 105 106 107
3 108 109 110
3 111 112 113
3 114 115 116
3 117 118 119
3 120 121 122
3 123 124 122
3 125 126 127
3 96 128 97
3 99 129 100
3 102 130 103
3 105 131 106
3 108 132 109
3 111 133 112
3 114 134 115
3 117 135 118
3 120 136 121
3 123 137 124
3 125 138 126
3 139 140 141
3 142 143 144
3 145 146 147
3 148 149 150
3 151 152 153
3 154 155 156
3 157 158 159
3 160 161 162
3 163 164 165
3 166 167 168
3 0 169 1
3 3 170 4
3 6 171 7
3 9 172 10
3 12 173 13
3 15 174 16
3 18 175 19
3 21 176 22
3 24 177 25
3 27 178 28
3 30 179 31
3 33 180 34
3 36 181 37
3 39 182 40
3 42 183 43
3 45 184 46
3 48 185 49
3 51 186 52
3 54 187 55
3 57 188 58
3 60 189 61
3 63 190 64
3 66 191 67
3 69 192 70
3 72 193 73
3 75 194 76
3 78 195 79
3 81 196 82
3 84 197 85
3 87 198 88
3 90 199 91
3 93 200 94
3 139 201 140
3 142 202 143
3 145 203 146
3 148 204 149
3 151 205 152
3 154 206 155
3 157 207 158
3 160 208 161
3 163 209 164
3 166 210 167
