ply
format ascii 1.0
comment Created by Blender 2.77 (sub 0) - www.blender.org, source file: 'road_curved_904_merged.blend'
element vertex 248
property float x
property float y
property float z
property uchar red
property uchar green
property uchar blue
element face 124
property list uchar uint vertex_indices
end_header
-31.250008 0.000000 -87.500015 255 255 255
-37.499981 -0.000002 -99.999985 255 255 255
-31.249985 -0.000001 -99.999985 255 255 255
-1.987588 0.000000 -81.134857 249 255 252
1.987556 0.000000 -89.360031 249 255 252
-1.987593 0.000000 -89.360031 249 255 252
-1.987593 0.000000 -56.134865 249 255 252
1.987556 0.000000 -64.360016 249 255 252
-1.987593 0.000000 -64.360016 249 255 252
-1.987605 0.000000 -39.360023 249 255 252
1.987501 0.000000 -31.250076 249 255 252
1.987548 0.000000 -39.360023 249 255 252
33.387424 0.000000 1.987572 249 255 252
41.612579 0.000000 -1.987579 249 255 252
33.387424 0.000000 -1.987579 249 255 252
58.387424 0.000000 1.987564 249 255 252
66.612587 0.000000 -1.987579 249 255 252
58.387424 0.000000 -1.987579 249 255 252
83.387421 0.000000 1.987579 249 255 252
91.612579 0.000000 -1.987579 249 255 252
83.387421 0.000000 -1.987579 249 255 252
83.387421 0.000000 1.987579 249 255 252
91.612579 0.000000 -1.987579 249 255 252
83.387421 0.000000 -1.987579 249 255 252
58.387424 0.000000 1.987564 249 255 252
66.612587 0.000000 -1.987579 249 255 252
58.387424 0.000000 -1.987579 249 255 252
33.387424 0.000000 1.987572 249 255 252
41.612579 0.000000 -1.987579 249 255 252
33.387424 0.000000 -1.987579 249 255 252
37.499992 0.000000 -87.500015 255 255 255
31.250002 -0.000002 -99.999985 255 255 255
37.500008 -0.000001 -99.999985 255 255 255
-31.250004 0.000001 24.999989 255 255 255
-37.500000 0.000001 37.499992 255 255 255
-31.250004 0.000001 37.499992 255 255 255
-25.000000 0.000001 31.249996 255 255 255
-31.249992 0.000001 37.499992 255 255 255
-25.000000 0.000001 37.499992 255 255 255
-37.500008 0.000000 -12.499992 122 37 45
-31.250004 0.000000 -0.000008 122 36 44
-31.250004 0.000000 -12.500008 122 36 44
-37.500008 0.000000 -24.999985 255 255 255
-31.250004 0.000000 -12.500008 255 255 255
-31.250004 0.000000 -24.999992 255 255 255
-37.500008 0.000000 0.000015 255 255 255
-31.250004 0.000000 12.499996 255 255 255
-31.250004 0.000000 -0.000008 255 255 255
-37.500008 0.000000 12.499996 122 37 45
-31.250004 0.000001 24.999989 122 36 44
-31.250004 0.000000 12.499996 122 36 44
-37.499973 -0.000003 -99.999985 81 255 81
-99.999992 0.000000 37.499985 83 255 83
-37.499989 0.000001 37.499992 81 255 81
37.500000 0.000000 -31.250000 122 36 44
31.250006 0.000000 -37.500008 122 36 44
31.250010 0.000000 -31.250000 122 36 44
-37.499981 -0.000001 -87.499985 122 37 45
-31.249992 -0.000001 -75.000015 122 36 44
-31.249992 -0.000001 -87.500015 122 36 44
-37.500000 -0.000001 -62.500000 122 37 45
-31.250000 -0.000001 -50.000008 122 36 44
-31.250004 -0.000001 -62.500000 122 36 44
-37.500008 -0.000001 -74.999985 255 255 255
-31.250004 -0.000001 -62.500000 255 255 255
-31.249992 -0.000001 -75.000000 255 255 255
-37.500000 -0.000001 -49.999992 255 255 255
-31.250004 -0.000001 -37.500008 255 255 255
-31.250000 -0.000001 -50.000008 255 255 255
-37.500008 -0.000001 -37.500008 122 37 45
-31.250004 0.000000 -25.000000 122 36 44
-31.250004 -0.000001 -37.500008 122 36 44
31.250021 -0.000001 -87.499985 122 37 45
37.500004 -0.000001 -75.000000 122 36 44
37.500008 -0.000001 -87.500015 122 36 44
31.250002 -0.000001 -62.499985 122 37 45
37.500004 -0.000001 -50.000000 122 36 44
37.500004 -0.000001 -62.500000 122 36 44
31.249994 -0.000001 -74.999985 255 255 255
37.500004 -0.000001 -62.500000 255 255 255
37.500004 -0.000001 -74.999985 255 255 255
31.250002 -0.000001 -49.999969 255 255 255
37.500000 -0.000001 -37.500000 255 255 255
37.500004 -0.000001 -50.000000 255 255 255
99.999985 0.000000 -37.500000 255 255 255
87.500000 0.000000 -31.250000 255 255 255
100.000008 0.000000 -31.250008 255 255 255
87.500000 -0.000001 -37.500000 122 37 45
75.000015 -0.000001 -31.249992 122 36 44
87.500015 -0.000001 -31.250000 122 36 44
62.500000 -0.000001 -37.500000 122 37 45
50.000008 -0.000001 -31.250000 122 36 44
62.500015 -0.000001 -31.249992 122 36 44
74.999992 -0.000001 -37.500000 255 255 255
62.500011 -0.000001 -31.250000 255 255 255
75.000008 -0.000001 -31.250000 255 255 255
49.999992 -0.000001 -37.500000 255 255 255
37.500008 -0.000001 -31.250000 255 255 255
50.000004 -0.000001 -31.249992 255 255 255
-12.500006 0.000000 31.249992 122 37 45
-25.000000 0.000002 37.499992 122 36 44
-12.499996 0.000000 37.499992 122 36 44
-0.000016 0.000000 31.249992 255 255 255
-12.500006 0.000000 37.499992 255 255 255
-0.000003 0.000000 37.499992 255 255 255
24.999983 0.000000 31.249996 255 255 255
12.499993 0.000000 37.499992 255 255 255
24.999989 0.000000 37.499996 255 255 255
12.499989 0.000000 31.249992 122 37 45
-0.000003 0.000002 37.499992 122 36 44
12.500003 0.000000 37.499992 122 36 44
37.499992 0.000000 31.249996 122 37 45
25.000006 0.000002 37.499996 122 36 44
37.500008 0.000000 37.499996 122 36 44
49.999981 0.000000 31.249996 255 255 255
37.500000 0.000000 37.499996 255 255 255
49.999992 0.000000 37.499996 255 255 255
74.999985 0.000000 31.249996 255 255 255
62.500004 0.000000 37.499996 255 255 255
75.000000 0.000000 37.499996 255 255 255
62.499992 0.000000 31.249996 122 37 45
49.999992 0.000002 37.499996 122 36 44
62.500004 0.000000 37.499996 122 36 44
87.500008 0.000000 31.249996 122 37 45
75.000000 0.000002 37.499996 122 36 44
87.500015 0.000000 37.499996 122 36 44
99.999985 0.000000 31.249996 255 255 255
87.500000 0.000000 37.500000 255 255 255
100.000008 0.000000 37.499996 255 255 255
33.387428 0.000000 -1.987579 120 122 121
-2.056294 0.000000 1.987617 120 122 121
33.387428 0.000000 1.987579 120 122 121
58.387432 0.000000 -1.987579 120 122 121
41.612579 0.000000 1.987572 120 122 121
58.387432 0.000000 1.987579 120 122 121
83.387428 0.000000 -1.987579 120 122 121
66.612587 0.000000 1.987579 120 122 121
83.387428 0.000000 1.987579 120 122 121
91.612602 0.000000 -1.976875 120 122 121
1.987553 0.000000 -31.250076 120 122 121
1.987499 0.000000 -1.987587 120 122 121
91.612602 0.000000 31.249741 120 122 121
-31.250004 0.000000 1.987617 120 122 121
-31.250004 0.000000 31.249989 120 122 121
100.000008 0.000000 -31.250008 120 122 121
91.612579 0.000000 31.249996 120 122 121
100.000008 0.000000 31.249996 120 122 121
1.987499 0.000000 -1.987587 120 122 121
41.612579 0.000000 -1.987579 120 122 121
66.612579 0.000000 -1.987579 120 122 121
91.612640 0.000000 -31.239250 120 122 121
91.612602 0.000000 1.987572 120 122 121
91.612640 0.000000 -31.239250 120 122 121
-1.987588 0.000000 -56.134880 120 122 121
1.987548 0.000000 -39.360023 120 122 121
1.987570 0.000000 -56.134880 120 122 121
-1.987583 0.000000 -81.134872 120 122 121
1.987560 0.000000 -64.360031 120 122 121
1.987575 0.000000 -81.134872 120 122 121
-1.987593 0.000000 -100.000000 120 122 121
1.987565 0.000000 -89.360031 120 122 121
1.987565 0.000000 -100.000000 120 122 121
-1.976874 0.000000 -100.000000 120 122 121
-31.250004 0.000000 1.987617 120 122 121
-2.056290 0.000000 1.987617 120 122 121
31.250011 0.000000 -99.999985 120 122 121
1.987501 0.000000 -31.250076 120 122 121
31.250006 0.000000 -31.250000 120 122 121
-1.987600 0.000000 -39.360023 120 122 121
-1.987588 0.000000 -64.360016 120 122 121
-1.987583 0.000000 -89.360031 120 122 121
-31.239258 0.000000 -100.000000 120 122 121
1.987575 0.000000 -100.000000 120 122 121
-1.987588 0.000000 -56.134880 120 122 121
1.987548 0.000000 -39.360023 120 122 121
1.987570 0.000000 -56.134880 120 122 121
-1.987600 0.000000 -39.360023 120 122 121
-1.987588 0.000000 -56.134880 120 122 121
1.987548 0.000000 -39.360023 120 122 121
1.987570 0.000000 -56.134880 120 122 121
-1.987600 0.000000 -39.360023 120 122 121
-1.987591 0.000000 -31.250000 120 122 121
1.987499 0.000000 -1.987579 120 122 121
1.987567 0.000000 -31.250000 120 122 121
-2.056290 0.000000 1.987617 120 122 121
33.387424 0.000000 1.987572 249 255 252
41.612579 0.000000 -1.987579 249 255 252
33.387424 0.000000 -1.987579 249 255 252
58.387424 0.000000 1.987564 249 255 252
66.612587 0.000000 -1.987579 249 255 252
58.387424 0.000000 -1.987579 249 255 252
83.387421 0.000000 1.987579 249 255 252
91.612579 0.000000 -1.987579 249 255 252
83.387421 0.000000 -1.987579 249 255 252
100.000008 0.000000 37.500004 81 255 81
-100.000023 0.000000 99.999985 84 255 84
99.999992 0.000000 100.000000 81 255 81
100.000015 0.000000 -99.999985 81 255 81
37.500000 -0.000001 -37.500008 83 255 83
100.000008 0.000000 -37.500000 81 255 81
-37.499973 0.000000 -87.499985 255 255 255
1.987570 0.000000 -81.134888 249 255 252
1.987565 0.000000 -56.134865 249 255 252
-1.987623 0.000000 -31.250076 249 255 252
41.612579 0.000000 1.987572 249 255 252
66.612587 0.000000 1.987579 249 255 252
91.612579 0.000000 1.987579 249 255 252
91.612579 0.000000 1.987579 249 255 252
66.612587 0.000000 1.987579 249 255 252
41.612579 0.000000 1.987572 249 255 252
31.250021 0.000000 -87.499985 255 255 255
-37.500000 0.000001 24.999989 255 255 255
-31.250004 0.000000 31.249989 255 255 255
-37.500008 0.000000 -0.000008 122 36 44
-37.500008 0.000000 -12.499992 255 255 255
-37.500008 0.000000 12.499996 255 255 255
-37.500008 0.000001 24.999989 122 36 44
-100.000008 0.000000 -100.000000 81 255 81
37.500004 0.000000 -37.500008 122 36 44
-37.499981 -0.000001 -75.000015 122 36 44
-37.500004 -0.000001 -50.000008 122 36 44
-37.500000 -0.000001 -62.500000 255 255 255
-37.500008 -0.000001 -37.500008 255 255 255
-37.500008 0.000000 -25.000000 122 36 44
31.250017 -0.000001 -75.000000 122 36 44
31.250002 -0.000001 -49.999992 122 36 44
31.250002 -0.000001 -62.499985 255 255 255
31.250000 -0.000001 -37.500000 255 255 255
87.500000 0.000000 -37.500000 255 255 255
75.000015 -0.000001 -37.500000 122 36 44
50.000008 -0.000001 -37.500000 122 36 44
62.500000 -0.000001 -37.500000 255 255 255
37.500000 -0.000001 -37.500000 255 255 255
-25.000000 0.000002 31.249996 122 36 44
-12.500006 0.000000 31.249992 255 255 255
12.499989 0.000000 31.249992 255 255 255
-0.000003 0.000002 31.249996 122 36 44
25.000006 0.000002 31.249996 122 36 44
37.499992 0.000000 31.249996 255 255 255
62.500000 0.000000 31.249996 255 255 255
50.000004 0.000002 31.250000 122 36 44
75.000008 0.000002 31.250004 122 36 44
87.500008 0.000000 31.249996 255 255 255
41.612579 0.000000 1.987572 249 255 252
66.612587 0.000000 1.987579 249 255 252
91.612579 0.000000 1.987579 249 255 252
-100.000015 0.000000 37.499985 81 255 81
37.500008 0.000000 -100.000000 81 255 81
3 0 1 2
3 3 4 5
3 6 7 8
3 9 10 11
3 12 13 14
3 15 16 17
3 18 19 20
3 21 22 23
3 24 25 26
3 27 28 29
3 30 31 32
3 33 34 35
3 36 37 38
3 39 40 41
3 42 43 44
3 45 46 47
3 48 49 50
3 51 52 53
3 54 55 56
3 57 58 59
3 60 61 62
3 63 64 65
3 66 67 68
3 69 70 71
3 72 73 74
3 75 76 77
3 78 79 80
3 81 82 83
3 84 85 86
3 87 88 89
3 90 91 92
3 93 94 95
3 96 97 98
3 99 100 101
3 102 103 104
3 105 106 107
3 108 109 110
3 111 112 113
3 114 115 116
3 117 118 119
3 120 121 122
3 123 124 125
3 126 127 128
3 129 130 131
3 132 133 134
3 135 136 137
3 138 139 140
3 141 142 143
3 144 145 146
3 129 147 130
3 132 148 133
3 135 149 136
3 138 150 139
3 141 151 142
3 144 152 145
3 153 154 155
3 156 157 158
3 159 160 161
3 162 163 164
3 165 166 167
3 153 168 154
3 156 169 157
3 159 170 160
3 162 171 163
3 165 172 166
3 173 174 175
3 173 176 174
3 177 178 179
3 177 180 178
3 181 182 183
3 181 184 182
3 185 186 187
3 188 189 190
3 191 192 193
3 194 195 196
3 197 198 199
3 0 200 1
3 3 201 4
3 6 202 7
3 9 203 10
3 12 204 13
3 15 205 16
3 18 206 19
3 21 207 22
3 24 208 25
3 27 209 28
3 30 210 31
3 33 211 34
3 36 212 37
3 39 213 40
3 42 214 43
3 45 215 46
3 48 216 49
3 51 217 52
3 54 218 55
3 57 219 58
3 60 220 61
3 63 221 64
3 66 222 67
3 69 223 70
3 72 224 73
3 75 225 76
3 78 226 79
3 81 227 82
3 84 228 85
3 87 229 88
3 90 230 91
3 93 231 94
3 96 232 97
3 99 233 100
3 102 234 103
3 105 235 106
3 108 236 109
3 111 237 112
3 114 238 115
3 117 239 118
3 120 240 121
3 123 241 124
3 126 242 127
3 185 243 186
3 188 244 189
3 191 245 192
3 194 246 195
3 197 247 198
